<?xml version="1.0" encoding="utf-8"?>
<!-- Generator: Adobe Illustrator 23.0.5, SVG Export Plug-In . SVG Version: 6.00 Build 0)  -->
<svg version="1.1" id="Layer_1" xmlns="http://www.w3.org/2000/svg" xmlns:xlink="http://www.w3.org/1999/xlink" x="0px" y="0px"
	 width="188px" height="46px" viewBox="0 0 188 46" style="enable-background:new 0 0 188 46;" xml:space="preserve">
<style type="text/css">
	.st0{fill:#0892C8;}
	.st1{fill:#312F6A;}
	.st2{fill-rule:evenodd;clip-rule:evenodd;fill:#0892C8;}
	.st3{fill-rule:evenodd;clip-rule:evenodd;fill:#312F6A;}
</style>
<g>
	<path class="st0" d="M78.8,32.1l-2.6,9h-1.8l-1.3-4.9l-1.3,4.9h-1.8l-2.4-9h2.7l1.4,5.5l1.4-5.5h1.6l1.4,5.5l1.5-5.5H78.8
		L78.8,32.1z M86.4,40.9c-0.6,0.2-1.2,0.3-1.8,0.3c-0.9,0-1.4-0.3-1.6-0.8c-0.4,0.5-1,0.8-1.8,0.8c-1.5,0-2.2-0.6-2.2-1.9
		c0-1,0.7-1.7,2-2.1c1.2-0.4,1.8-0.8,1.8-1.3c0-0.7-0.4-1-1.1-1c-0.8,0-1.2,0.3-1.2,1c0,0.2,0.1,0.5,0.2,0.8l-1.2-0.2
		c0-0.2-0.1-0.4-0.1-0.6c0-1.1,1-1.6,3-1.6c1.9,0,2.9,0.5,2.9,1.5v4c0,0.4,0.1,0.6,0.4,0.6c0.1,0,0.2,0,0.4-0.1L86.4,40.9L86.4,40.9
		z M82.9,37.1c-0.2,0.2-0.3,0.3-0.5,0.4c-0.5,0.3-0.8,0.8-0.8,1.5c0,0.9,0.2,1.3,0.5,1.3c0.5,0,0.8-0.4,0.8-1.3V37.1L82.9,37.1z
		 M92.7,34.5l-3.2,7.5c-0.4,1-1,1.5-1.8,1.5c-0.7,0-1.2-0.3-1.5-0.9l0.9-0.6c0.1,0.5,0.3,0.8,0.6,0.8c0.4,0,0.7-0.3,0.9-0.9l0.2-0.5
		l-2.8-7h2.8l1.4,3.9l1.6-3.9H92.7L92.7,34.5z M101.2,34.5v0.7h-1.1v4.7c0,0.3,0.1,0.4,0.3,0.4c0.1,0,0.2-0.1,0.3-0.3l0.7,0.1
		c-0.2,0.7-0.8,1-1.9,1c-1.3,0-1.9-0.5-1.9-1.5v-4.4h-0.8v-0.7h0.8v-1.2c0.9-0.2,1.7-0.6,2.5-1v2.2H101.2L101.2,34.5z M105.2,34.3
		c2.3,0,3.4,1.2,3.4,3.5c0,2.3-1.1,3.5-3.4,3.5c-2.3,0-3.5-1.2-3.5-3.5C101.7,35.4,102.9,34.3,105.2,34.3L105.2,34.3z M105.2,34.9
		c-0.6,0-0.8,1-0.8,2.9s0.3,2.9,0.8,2.9c0.6,0,0.8-1,0.8-2.9S105.7,34.9,105.2,34.9L105.2,34.9z M120.2,34.6l-1.3,0.2
		c0.1-0.2,0.1-0.4,0.1-0.6c0-1-0.7-1.6-2-1.6c-1,0-1.6,0.4-1.6,1.1c0,0.5,0.6,1,1.8,1.4c2.3,0.7,3.4,1.8,3.4,3.3
		c0,0.9-0.3,1.5-1,2.1c-0.6,0.5-1.5,0.8-2.5,0.8c-2.3,0-3.5-0.9-3.5-2.6c0-0.1,0-0.3,0-0.5l1.3-0.3c-0.1,0.4-0.2,0.7-0.2,1
		c0,1.1,0.7,1.7,2,1.7c1.1,0,1.6-0.4,1.6-1.2c0-0.6-0.6-1.1-1.9-1.6c-1.9-0.6-2.8-1.7-2.8-3.1c0-0.8,0.3-1.5,0.9-2
		c0.6-0.5,1.4-0.7,2.4-0.7C119.1,32,120.2,32.8,120.2,34.6L120.2,34.6z M128.3,34.3v6.8h-2.5V40c-0.6,0.8-1.3,1.2-2.2,1.2
		c-1.2,0-1.8-0.6-1.8-1.7v-5c0.8,0,1.7-0.1,2.5-0.2v5.2c0,0.4,0.1,0.7,0.4,0.7c0.8,0,1.1-0.8,1.1-2.3v-3.3
		C126.6,34.4,127.4,34.4,128.3,34.3L128.3,34.3z M134.6,38.1l1.1,0.3l0,0.3c0,1.7-1,2.5-2.9,2.5c-2.3,0-3.4-1.1-3.4-3.3
		c0-1.1,0.3-2,1-2.7c0.7-0.7,1.6-1,2.7-1c1.6,0,2.4,0.7,2.4,2.1l-1.2,0.5l0-0.6c0-1-0.3-1.4-1-1.4c-0.9,0-1.3,0.9-1.3,2.8
		c0,1.1,0.1,1.9,0.3,2.4c0.2,0.4,0.5,0.6,1,0.6c0.9,0,1.4-0.6,1.4-1.7C134.7,38.8,134.7,38.5,134.6,38.1L134.6,38.1z M141.5,38.1
		l1.1,0.3l0,0.3c0,1.7-1,2.5-2.9,2.5c-2.3,0-3.4-1.1-3.4-3.3c0-1.1,0.3-2,1-2.7c0.7-0.7,1.6-1,2.7-1c1.6,0,2.4,0.7,2.4,2.1l-1.2,0.5
		l0-0.6c0-1-0.3-1.4-1-1.4c-0.9,0-1.3,0.9-1.3,2.8c0,1.1,0.1,1.9,0.3,2.4c0.2,0.4,0.5,0.6,1,0.6c0.9,0,1.4-0.6,1.4-1.7
		C141.6,38.8,141.6,38.5,141.5,38.1L141.5,38.1z M148.4,38.7l1,0.3c-0.1,1.5-1.1,2.3-2.8,2.3c-2.3,0-3.5-1.1-3.5-3.3
		c0-1.1,0.3-1.9,0.9-2.6c0.6-0.7,1.4-1,2.4-1c2,0,3,1.2,3,3.7h-3.7c0,1.7,0.5,2.6,1.4,2.6c0.9,0,1.3-0.5,1.3-1.5
		C148.4,39,148.4,38.8,148.4,38.7L148.4,38.7z M145.8,37.2h1.5c0-1.5-0.2-2.3-0.7-2.3c-0.4,0-0.7,0.6-0.7,1.7L145.8,37.2L145.8,37.2
		z M155.9,36.2l-1.2,0.2c0-1-0.5-1.5-1.5-1.5c-0.6,0-0.9,0.2-0.9,0.7c0,0.3,0.5,0.7,1.5,1.1c1.6,0.6,2.3,1.4,2.3,2.3
		c0,1.5-1,2.2-3,2.2c-2.1,0-3.2-0.7-3.2-2.2l1.3-0.3c0,0.1,0,0.3,0,0.4c0,0.4,0.2,0.7,0.5,1c0.3,0.3,0.7,0.4,1.2,0.4
		c0.6,0,0.9-0.2,0.9-0.7c0-0.3-0.5-0.7-1.5-1.1c-1.5-0.6-2.2-1.4-2.2-2.3c0-0.6,0.3-1.1,0.8-1.5c0.6-0.4,1.3-0.6,2.2-0.6
		C154.9,34.3,155.8,34.9,155.9,36.2L155.9,36.2z M162.7,36.2l-1.2,0.2c0-1-0.5-1.5-1.5-1.5c-0.6,0-0.9,0.2-0.9,0.7
		c0,0.3,0.5,0.7,1.5,1.1c1.6,0.6,2.3,1.4,2.3,2.3c0,1.5-1,2.2-3,2.2c-2.1,0-3.2-0.7-3.2-2.2l1.3-0.3c0,0.1,0,0.3,0,0.4
		c0,0.4,0.2,0.7,0.5,1c0.3,0.3,0.7,0.4,1.2,0.4c0.6,0,0.9-0.2,0.9-0.7c0-0.3-0.5-0.7-1.5-1.1c-1.5-0.6-2.2-1.4-2.2-2.3
		c0-0.6,0.3-1.1,0.8-1.5c0.6-0.4,1.3-0.6,2.2-0.6C161.6,34.3,162.5,34.9,162.7,36.2L162.7,36.2z"/>
	<path class="st1" d="M60.1,10.6l-4.2,12.2c-0.2,0.6-0.3,1.1-0.3,1.5c0,0.7,0.4,1.2,1.1,1.4v0.5h-7.2v-0.5c0.7-0.2,1-0.7,1-1.4
		c0-0.4-0.1-0.9-0.3-1.5L45.2,7.5c-0.4-1.2-0.7-2-1-2.3c-0.3-0.4-0.7-0.7-1.2-0.8V3.8h7.3v0.6c-0.7,0.3-1.1,0.7-1.1,1.3
		c0,0.3,0.1,0.8,0.3,1.4l3.6,10.6l3.6-10.5C57,6.5,57.1,6,57.1,5.7c0-0.7-0.4-1.1-1.2-1.3V3.8h8.6v0.6c-0.7,0.3-1.1,0.7-1.1,1.4
		c0,0.3,0.1,0.7,0.3,1.3l3.5,10.6l3.5-10.7C70.9,6.5,71,6.1,71,5.7c0-0.4-0.1-0.7-0.2-0.9c-0.2-0.2-0.5-0.4-0.9-0.5V3.8h7.5v0.6
		c-0.6,0.2-1,0.5-1.2,0.9c-0.3,0.4-0.6,1.1-1,2.3L70,22.8c-0.2,0.5-0.3,1-0.3,1.4c0,0.8,0.4,1.2,1.2,1.4v0.5h-7.5v-0.5
		c0.7-0.2,1.1-0.7,1.1-1.5c0-0.2-0.1-0.6-0.4-1.4L60.1,10.6L60.1,10.6z"/>
	<path class="st1" d="M84.9,16.6v5.5h12.2c0.4,0,0.6-0.1,0.8-0.3c0.2-0.2,0.3-0.5,0.5-1h0.5v6.6h-0.5c-0.1-0.5-0.3-0.8-0.4-1
		c-0.2-0.2-0.5-0.3-0.8-0.3H79.2v-0.6c0.4-0.1,0.7-0.3,0.8-0.5c0.2-0.2,0.2-0.5,0.2-1V5.8c0-0.4-0.1-0.7-0.2-0.9
		c-0.2-0.2-0.4-0.4-0.9-0.5V3.8h17.4c0.4,0,0.6-0.1,0.8-0.3c0.2-0.2,0.3-0.5,0.5-1h0.5v6.6h-0.5c-0.1-0.5-0.3-0.8-0.5-1
		c-0.2-0.2-0.5-0.3-0.8-0.3H84.9v4.9h7.2c0.4,0,0.6-0.1,0.8-0.3c0.2-0.2,0.3-0.5,0.5-1h0.5v6.4h-0.5c-0.1-0.5-0.3-0.8-0.5-1
		c-0.2-0.2-0.5-0.3-0.8-0.3H84.9L84.9,16.6z"/>
	<path class="st1" d="M107.6,22.1h10.8c0.4,0,0.6-0.1,0.8-0.3c0.2-0.2,0.3-0.5,0.5-1h0.5v6.6h-0.5c-0.1-0.5-0.3-0.8-0.5-1
		c-0.2-0.2-0.5-0.3-0.8-0.3h-16.5v-0.6c0.4-0.1,0.7-0.3,0.8-0.5c0.2-0.2,0.2-0.5,0.2-1V5.8c0-0.4-0.1-0.7-0.2-0.9
		c-0.2-0.2-0.4-0.4-0.9-0.5V3.8h6.8v0.6c-0.4,0.1-0.7,0.3-0.9,0.5c-0.2,0.2-0.2,0.5-0.2,0.9V22.1L107.6,22.1z"/>
	<path class="st0" d="M132.7,7.8v16.3c0,0.4,0.1,0.7,0.2,0.9c0.2,0.2,0.4,0.4,0.9,0.5v0.6H127v-0.6c0.4-0.1,0.7-0.3,0.8-0.5
		c0.2-0.2,0.2-0.5,0.2-1V7.8h-5.7c-0.4,0-0.6,0.1-0.8,0.3c-0.2,0.2-0.3,0.5-0.5,1h-0.5V2.5h0.5c0.1,0.5,0.3,0.8,0.4,1
		c0.2,0.2,0.5,0.3,0.8,0.3h16c0.4,0,0.6-0.1,0.8-0.3c0.2-0.2,0.3-0.5,0.5-1h0.5v6.6h-0.5c-0.1-0.5-0.3-0.8-0.5-1
		c-0.2-0.2-0.5-0.3-0.8-0.3H132.7L132.7,7.8z"/>
	<path class="st0" d="M148.1,16.6v5.5h12.2c0.4,0,0.6-0.1,0.8-0.3c0.2-0.2,0.3-0.5,0.5-1h0.5v6.6h-0.5c-0.1-0.5-0.3-0.8-0.4-1
		c-0.2-0.2-0.5-0.3-0.8-0.3h-17.9v-0.6c0.4-0.1,0.7-0.3,0.8-0.5c0.2-0.2,0.2-0.5,0.2-1V5.8c0-0.4-0.1-0.7-0.2-0.9
		c-0.2-0.2-0.4-0.4-0.9-0.5V3.8h17.4c0.4,0,0.6-0.1,0.8-0.3c0.2-0.2,0.3-0.5,0.5-1h0.5v6.6H161c-0.1-0.5-0.3-0.8-0.5-1
		c-0.2-0.2-0.5-0.3-0.8-0.3h-11.7v4.9h7.2c0.4,0,0.6-0.1,0.8-0.3c0.2-0.2,0.3-0.5,0.5-1h0.5v6.4h-0.5c-0.1-0.5-0.3-0.8-0.5-1
		c-0.2-0.2-0.5-0.3-0.8-0.3H148.1L148.1,16.6z"/>
	<path class="st0" d="M183.8,18.1l2.9,5l-0.4,0.3c-0.3-0.2-0.5-0.3-0.7-0.3c-0.2,0-0.6,0.2-1.4,0.7c-1.6,1.1-3,1.8-4.2,2.2
		c-1.2,0.4-2.6,0.6-4.2,0.6c-3.1,0-5.7-0.9-7.7-2.6c-1.1-1-2-2.3-2.7-3.8c-0.7-1.6-1.1-3.4-1.1-5.3c0-2.6,0.7-5,2-7
		c2-3.1,5.2-4.7,9.4-4.7c1.6,0,3,0.2,4.2,0.6c1.2,0.4,2.6,1.2,4.2,2.2c0.7,0.5,1.2,0.7,1.4,0.7c0.2,0,0.4-0.1,0.7-0.3l0.4,0.4
		l-2.9,4.9l-0.4-0.3c0-0.2,0-0.3,0-0.3c0-0.1,0-0.2,0-0.3c0-0.6-0.8-1.4-2.3-2.2c-1.5-0.8-2.9-1.2-4.4-1.2c-2.1,0-3.8,0.6-5.2,1.9
		c-1.5,1.4-2.3,3.3-2.3,5.5c0,2.3,0.8,4.1,2.3,5.5c1.4,1.3,3.1,1.9,5.2,1.9c1.6,0,3.3-0.5,4.9-1.4c1.3-0.7,1.9-1.4,1.9-2
		c0,0,0-0.2,0-0.6L183.8,18.1L183.8,18.1z"/>
	<polygon class="st2" points="2.9,4.3 29.9,4.3 29.9,15.1 16.3,15.1 14.3,15.1 14.3,17.1 14.3,30 2.9,30 2.9,4.3 	"/>
	<polygon class="st3" points="37.8,16.8 16,16.8 16,37.6 26.6,37.6 26.6,27.8 26.6,25.9 28.6,25.9 37.8,25.9 37.8,16.8 	"/>
	<polygon class="st2" points="28.3,27.5 42.4,27.5 42.4,41 28.3,41 28.3,27.5 	"/>
</g>
</svg>
